<svg width="800" height="600" version="1.1" xmlns="http://www.w3.org/2000/svg">
	<ellipse stroke="black" stroke-width="1" fill="none" cx="419.5" cy="110.5" rx="30" ry="30"/>
	<text x="394.5" y="116.5" font-family="Times New Roman" font-size="20">READY</text>
	<ellipse stroke="black" stroke-width="1" fill="none" cx="419.5" cy="318.5" rx="30" ry="30"/>
	<text x="374.5" y="324.5" font-family="Times New Roman" font-size="20">TAG_CHECK</text>
	<ellipse stroke="black" stroke-width="1" fill="none" cx="419.5" cy="511.5" rx="30" ry="30"/>
	<text x="389.5" y="517.5" font-family="Times New Roman" font-size="20">REFILL</text>
	<polygon stroke="black" stroke-width="1" points="318.5,110.5 389.5,110.5"/>
	<text x="263.5" y="116.5" font-family="Times New Roman" font-size="20">reset</text>
	<polygon fill="black" stroke-width="1" points="389.5,110.5 381.5,105.5 381.5,115.5"/>
	<path stroke="black" stroke-width="1" fill="none" d="M 408.977,290.424 A 256.774,256.774 0 0 1 408.977,138.576"/>
	<polygon fill="black" stroke-width="1" points="408.977,290.424 411.388,281.303 401.835,284.26"/>
	<text x="112.5" y="220.5" font-family="Times New Roman" font-size="20">rreq_from_cpu||wreq_from_cpu</text>
	<path stroke="black" stroke-width="1" fill="none" d="M 429.571,138.742 A 268.019,268.019 0 0 1 429.571,290.258"/>
	<polygon fill="black" stroke-width="1" points="429.571,138.742 427.036,147.83 436.628,145.003"/>
	<text x="445.5" y="220.5" font-family="Times New Roman" font-size="20">!(miss||(!miss&amp;&amp;wreq_from_cpu))</text>
	<path stroke="black" stroke-width="1" fill="none" d="M 408.827,483.485 A 232.196,232.196 0 0 1 408.827,346.515"/>
	<polygon fill="black" stroke-width="1" points="408.827,483.485 411.245,474.366 401.69,477.316"/>
	<text x="113.5" y="420.5" font-family="Times New Roman" font-size="20">miss||(!miss&amp;&amp;wreq_from_cpu)</text>
	<path stroke="black" stroke-width="1" fill="none" d="M 392.703,524.725 A 22.5,22.5 0 1 1 392.703,498.275"/>
	<text x="27.5" y="517.5" font-family="Times New Roman" font-size="20">!(rvalid_fom_mem||wreq_from_cpu)</text>
	<polygon fill="black" stroke-width="1" points="392.703,498.275 389.17,489.527 383.292,497.618"/>
	<path stroke="black" stroke-width="1" fill="none" d="M 430.173,346.515 A 232.196,232.196 0 0 1 430.173,483.485"/>
	<polygon fill="black" stroke-width="1" points="430.173,346.515 427.755,355.634 437.31,352.684"/>
	<text x="445.5" y="420.5" font-family="Times New Roman" font-size="20">rvalid_from_mem||wreq_from_cpu</text>
	<path stroke="black" stroke-width="1" fill="none" d="M 446.297,97.275 A 22.5,22.5 0 1 1 446.297,123.725"/>
	<text x="492.5" y="116.5" font-family="Times New Roman" font-size="20">!(rreq_from_cpu||wreq_from_cpu)</text>
	<polygon fill="black" stroke-width="1" points="446.297,123.725 449.83,132.473 455.708,124.382"/>
</svg>
